<svg xmlns="http://www.w3.org/2000/svg" width="126" height="32" viewBox="0 0 126 32">
    <g fill="none" fill-rule="evenodd">
        <path fill="#7DDB29" d="M18.027 0L9.013 5.237l9.015 5.237 9.012-5.237z"/>
        <path fill="#7DDB29" d="M18.029 10.473L9.015 15.71l9.015 5.237 9.012-5.237zM18.027 20.948l-9.014 5.237 9.015 5.237 9.012-5.237z"/>
        <path fill="#12062E" d="M27.042 5.237l-9.013 5.237 9.014 5.236 9.012-5.237zM9.013 15.71L0 20.947l9.015 5.237 9.012-5.237z"/>
        <g fill="#12062E">
            <path d="M41.032 16.28l.003-4.899h17l-8.65 13.908h8.09v4.938H39.907l8.69-13.946zM81.029 30.195V6.656L86.5 3.394v26.801zM99.021 30.183c-2.7 0-4.998-.919-6.858-2.79-1.861-1.873-2.81-4.186-2.81-6.903 0-2.717.949-4.993 2.81-6.865 1.86-1.873 4.159-2.828 6.858-2.828 2.7 0 4.998.955 6.859 2.828 1.86 1.872 2.81 4.148 2.81 6.865 0 2.717-.95 5.03-2.81 6.902-1.86 1.872-4.159 2.79-6.859 2.79m0-5.36c1.204 0 2.19-.403 2.992-1.21.803-.809 1.204-1.837 1.204-3.122s-.401-2.313-1.204-3.12c-.803-.808-1.788-1.212-2.992-1.212-1.203 0-2.189.404-2.991 1.211-.803.808-1.204 1.836-1.204 3.121s.401 2.313 1.204 3.121c.802.808 1.788 1.211 2.991 1.211M65.03 22.724c.62 1.726 2.079 2.57 4.377 2.57 1.496 0 2.663-.477 3.502-1.395l4.378 2.533c-1.787 2.533-4.45 3.782-7.953 3.782-3.064 0-5.509-.918-7.37-2.754-1.824-1.836-2.736-4.148-2.736-6.939 0-2.753.912-5.067 2.7-6.902 1.824-1.872 4.159-2.79 7.005-2.79 2.663 0 4.852.918 6.603 2.79 1.788 1.835 2.663 4.149 2.663 6.902 0 .771-.073 1.505-.218 2.203H65.029zm7.733-4.112c-.547-1.945-1.824-2.9-3.867-2.9-2.116 0-3.43.955-3.977 2.9h7.844zM119.849 18.398c2.517.551 5.837 1.873 5.801 5.875 0 1.982-.73 3.487-2.189 4.515-1.46.992-3.247 1.506-5.4 1.506-3.83 0-6.457-1.469-7.843-4.369l4.742-2.79c.475 1.43 1.533 2.24 3.101 2.24 1.314 0 1.97-.368 1.97-1.14 0-.733-1.423-1.174-3.173-1.614-2.518-.698-5.801-1.946-5.801-5.691 0-1.91.693-3.378 2.043-4.443 1.386-1.064 3.1-1.578 5.107-1.578 3.028 0 5.619 1.395 7.114 3.928l-4.563 2.665c-.583-1.065-1.493-1.747-2.55-1.747-1.022 0-1.533.33-1.533 1.028 0 .734 1.423 1.139 3.174 1.615"/>
        </g>
    </g>
</svg>
